<?xml version="1.0" encoding="utf-8"?>
<!-- Generator: Adobe Illustrator 25.2.1, SVG Export Plug-In . SVG Version: 6.00 Build 0)  -->
<svg version="1.1" id="Capa_1" xmlns="http://www.w3.org/2000/svg" xmlns:xlink="http://www.w3.org/1999/xlink" x="0px" y="0px"
	 viewBox="0 0 595.3 841.9" style="enable-background:new 0 0 595.3 841.9;" xml:space="preserve">
<style type="text/css">
	.st0{fill:#020203;}
	.st1{fill:#FFFFFF;stroke:#FFFFFF;stroke-miterlimit:10;}
	.st2{fill:#FFFFFF;}
</style>
<g>
	<path class="st0" d="M103,88.3c-8.5-2.5-14.8-5.5-18.7-9.1s-5.8-8-5.8-13.3c0-6,2.4-10.9,7.1-14.8c4.8-3.9,10.9-5.8,18.6-5.8
		c5.2,0,9.8,1,13.9,3c4.1,2,7.2,4.8,9.4,8.3c2.2,3.5,3.3,7.4,3.3,11.6h-10c0-4.6-1.5-8.2-4.4-10.8c-2.9-2.6-7-3.9-12.3-3.9
		c-4.9,0-8.7,1.1-11.5,3.3c-2.8,2.2-4.1,5.2-4.1,9c0,3.1,1.3,5.7,3.9,7.8c2.6,2.1,7.1,4.1,13.3,5.9s11.2,3.7,14.7,5.8
		c3.5,2.1,6.2,4.6,7.9,7.4c1.7,2.8,2.6,6.2,2.6,10c0,6.1-2.4,11-7.2,14.7s-11.2,5.5-19.2,5.5c-5.2,0-10-1-14.5-3
		c-4.5-2-8-4.7-10.4-8.2c-2.4-3.5-3.7-7.4-3.7-11.8h10c0,4.6,1.7,8.2,5.1,10.8c3.4,2.6,7.9,4,13.5,4c5.3,0,9.3-1.1,12.1-3.2
		c2.8-2.1,4.2-5.1,4.2-8.8c0-3.7-1.3-6.6-3.9-8.6C114.6,92.3,109.9,90.3,103,88.3z"/>
	<path class="st0" d="M158,52.3v13.6h10.5v7.4H158v34.9c0,2.3,0.5,3.9,1.4,5.1c0.9,1.1,2.5,1.7,4.8,1.7c1.1,0,2.6-0.2,4.6-0.6v7.7
		c-2.5,0.7-5,1-7.4,1c-4.3,0-7.5-1.3-9.7-3.9c-2.2-2.6-3.3-6.3-3.3-11.1V73.3h-10.2v-7.4h10.2V52.3H158z"/>
	<path class="st0" d="M217.1,116.5c-3.7,4.4-9.2,6.6-16.5,6.6c-6,0-10.5-1.7-13.7-5.2c-3.1-3.5-4.7-8.6-4.8-15.4V65.9h9.6v36.3
		c0,8.5,3.5,12.8,10.4,12.8c7.3,0,12.2-2.7,14.6-8.2V65.9h9.6V122h-9.1L217.1,116.5z"/>
	<path class="st0" d="M241.3,93.5c0-8.6,2-15.5,6.1-20.8c4.1-5.2,9.4-7.9,16-7.9c6.6,0,11.8,2.2,15.6,6.7V42.3h9.6V122h-8.8l-0.5-6
		c-3.8,4.7-9.2,7.1-16,7.1c-6.5,0-11.8-2.7-15.9-8c-4.1-5.3-6.2-12.3-6.2-20.9V93.5z M250.9,94.6c0,6.4,1.3,11.4,3.9,14.9
		c2.6,3.6,6.3,5.4,10.9,5.4c6.1,0,10.5-2.7,13.3-8.2V80.9c-2.9-5.3-7.3-7.9-13.2-7.9c-4.7,0-8.4,1.8-11,5.5
		C252.2,82.1,250.9,87.4,250.9,94.6z"/>
	<path class="st0" d="M332.7,93.4c0-5.5,1.1-10.5,3.2-14.8c2.2-4.4,5.2-7.8,9-10.2c3.9-2.4,8.3-3.6,13.2-3.6
		c7.6,0,13.8,2.6,18.6,7.9c4.7,5.3,7.1,12.3,7.1,21.1v0.7c0,5.5-1,10.4-3.1,14.7c-2.1,4.3-5.1,7.7-9,10.1c-3.9,2.4-8.4,3.6-13.4,3.6
		c-7.6,0-13.8-2.6-18.5-7.9c-4.7-5.3-7.1-12.3-7.1-21V93.4z M342.3,94.6c0,6.2,1.4,11.2,4.3,15c2.9,3.8,6.8,5.7,11.6,5.7
		c4.9,0,8.8-1.9,11.6-5.7c2.9-3.8,4.3-9.2,4.3-16.1c0-6.2-1.5-11.2-4.4-15c-2.9-3.8-6.8-5.7-11.7-5.7c-4.7,0-8.6,1.9-11.5,5.7
		C343.8,82.1,342.3,87.5,342.3,94.6z"/>
</g>
<g>
	<path class="st0" d="M320.4,172.2l-10,0.2l-1.2-75.6l10-0.2L320.4,172.2z"/>
</g>
<g>
	<path class="st0" d="M388.9,160.8c0,8.5-2,15.4-5.9,20.7c-3.9,5.2-9.2,7.8-15.9,7.8c-6.8,0-12.2-2.2-16.1-6.5v27h-9.6v-77.8h8.8
		l0.5,6.2c3.9-4.8,9.3-7.3,16.3-7.3c6.7,0,12.1,2.5,16,7.6c3.9,5.1,5.9,12.2,5.9,21.2V160.8z M379.3,159.7c0-6.3-1.3-11.3-4-15
		c-2.7-3.7-6.4-5.5-11.1-5.5c-5.8,0-10.2,2.6-13.1,7.7v26.8c2.9,5.1,7.3,7.7,13.2,7.7c4.6,0,8.3-1.8,11-5.5
		C378,172.4,379.3,166.9,379.3,159.7z"/>
	<path class="st0" d="M427.1,189.3c-7.6,0-13.8-2.5-18.6-7.5c-4.8-5-7.2-11.7-7.2-20.1V160c0-5.6,1.1-10.5,3.2-14.9
		c2.1-4.4,5.1-7.8,8.9-10.3c3.8-2.5,8-3.7,12.4-3.7c7.3,0,13,2.4,17,7.2S449,150,449,159v4h-38c0.1,5.5,1.8,10,4.9,13.4
		c3.1,3.4,7,5.1,11.8,5.1c3.4,0,6.3-0.7,8.6-2.1c2.4-1.4,4.4-3.2,6.2-5.5l5.9,4.6C443.6,185.7,436.5,189.3,427.1,189.3z M425.9,139
		c-3.9,0-7.1,1.4-9.8,4.2c-2.6,2.8-4.3,6.8-4.9,11.9h28.1v-0.7c-0.3-4.9-1.6-8.7-3.9-11.3C433.1,140.3,429.9,139,425.9,139z"/>
	<path class="st0" d="M483.5,153.1l-9.2,9.6v25.5h-10v-75.6h10v37.4l33.6-37.4h12l-29.7,33.4l32.1,42.2h-11.9L483.5,153.1z"/>
</g>
<polygon class="st1" points="309,113.7 319.6,113.7 319.6,114.7 317.4,114.7 315.3,115.7 311.6,116.6 309,117.6 "/>
<polygon class="st2" points="310.1,159 320.7,159 310.1,162.5 "/>
<polygon class="st1" points="147.6,51.8 158.1,51.8 158.1,52.7 155.9,52.7 153.8,53.7 150.1,54.7 147.6,55.7 "/>
<polygon class="st1" points="181.6,65.9 192.1,65.9 192.1,66.9 190,66.9 187.9,67.9 184.1,68.8 181.6,69.8 "/>
<polygon class="st1" points="279.4,41.8 290,41.8 290,42.8 287.8,42.8 285.7,43.8 282,44.7 279.4,45.7 "/>
<polygon class="st1" points="464,111.7 474.5,111.7 474.5,112.7 472.3,112.7 470.3,113.7 466.5,114.7 464,115.7 "/>
<g>
</g>
<g>
</g>
<g>
</g>
<g>
</g>
<g>
</g>
<g>
</g>
</svg>
