<?xml version="1.0" encoding="utf-8"?>
<!-- Generator: Adobe Illustrator 25.2.1, SVG Export Plug-In . SVG Version: 6.00 Build 0)  -->
<svg version="1.1" id="Capa_1" xmlns="http://www.w3.org/2000/svg" xmlns:xlink="http://www.w3.org/1999/xlink" x="0px" y="0px"
	 viewBox="0 0 595.3 841.9" style="enable-background:new 0 0 595.3 841.9;" xml:space="preserve">
<style type="text/css">
	.st0{fill:#020203;}
	.st1{font-family:'Roboto-Regular';}
	.st2{font-size:106.3063px;}
	.st3{letter-spacing:2;}
	.st4{font-size:106.3065px;}
	.st5{fill:#FFFFFF;stroke:#FFFFFF;stroke-miterlimit:10;}
	.st6{fill:#FFFFFF;}
</style>
<g>
	<text transform="matrix(1 0 0 1 72.7643 128.9333)" class="st0 st1 st2 st3">Stud o</text>
	<text transform="matrix(0.9999 -1.620997e-02 1.620997e-02 0.9999 301.6787 179.4137)" class="st0 st1 st4 st3">I</text>
	<text transform="matrix(1 0 0 1 334.9753 195.197)" class="st0 st1 st2 st3">peK</text>
	<polygon class="st5" points="309.8,120.6 320.3,120.6 320.3,121.6 318.2,121.6 316.1,122.6 312.3,123.6 309.8,124.5 	"/>
	<polygon class="st6" points="310.9,165.9 321.5,165.9 310.9,169.4 	"/>
	<polygon class="st5" points="148.3,58.7 158.8,58.7 158.8,59.7 156.7,59.7 154.6,60.6 150.8,61.6 148.3,62.6 	"/>
	<polygon class="st5" points="279.2,48.9 289.7,48.9 289.7,49.8 287.6,49.8 285.5,50.8 281.7,51.8 279.2,52.8 	"/>
	<polygon class="st5" points="182.7,72.8 193.2,72.8 193.2,73.8 191,73.8 189,74.8 185.2,75.8 182.7,76.7 	"/>
</g>
</svg>
