<?xml version="1.0" encoding="utf-8"?>
<!-- Generator: Adobe Illustrator 25.2.1, SVG Export Plug-In . SVG Version: 6.00 Build 0)  -->
<svg version="1.1" id="Capa_1" xmlns="http://www.w3.org/2000/svg" xmlns:xlink="http://www.w3.org/1999/xlink" x="0px" y="0px"
	 viewBox="0 0 600 400" style="enable-background:new 0 0 600 400;" xml:space="preserve">
<style type="text/css">
	.st0{fill:#020203;}
	.st1{fill:#FFFFFF;stroke:#FFFFFF;stroke-miterlimit:10;}
	.st2{fill:#FFFFFF;}
</style>
<g>
	<path class="st0" d="M100.2,146.9c-8.5-2.5-14.8-5.5-18.7-9.1s-5.8-8-5.8-13.3c0-6,2.4-10.9,7.1-14.8c4.8-3.9,10.9-5.8,18.6-5.8
		c5.2,0,9.8,1,13.9,3c4.1,2,7.2,4.8,9.4,8.3c2.2,3.5,3.3,7.4,3.3,11.6h-10c0-4.6-1.5-8.2-4.4-10.8c-2.9-2.6-7-3.9-12.3-3.9
		c-4.9,0-8.7,1.1-11.5,3.3c-2.8,2.2-4.1,5.2-4.1,9c0,3.1,1.3,5.7,3.9,7.8c2.6,2.1,7.1,4.1,13.3,5.9s11.2,3.7,14.7,5.8
		c3.5,2.1,6.2,4.6,7.9,7.4c1.7,2.8,2.6,6.2,2.6,10c0,6.1-2.4,11-7.2,14.7s-11.2,5.5-19.2,5.5c-5.2,0-10-1-14.5-3
		c-4.5-2-8-4.7-10.4-8.2c-2.4-3.5-3.7-7.4-3.7-11.8h10c0,4.6,1.7,8.2,5.1,10.8c3.4,2.6,7.9,4,13.5,4c5.3,0,9.3-1.1,12.1-3.2
		c2.8-2.1,4.2-5.1,4.2-8.8c0-3.7-1.3-6.6-3.9-8.6C111.7,150.9,107,148.9,100.2,146.9z"/>
	<path class="st0" d="M155.2,110.9v13.6h10.5v7.4h-10.5v34.9c0,2.3,0.5,3.9,1.4,5.1c0.9,1.1,2.5,1.7,4.8,1.7c1.1,0,2.6-0.2,4.6-0.6
		v7.7c-2.5,0.7-5,1-7.4,1c-4.3,0-7.5-1.3-9.7-3.9c-2.2-2.6-3.3-6.3-3.3-11.1v-34.8h-10.2v-7.4h10.2v-13.6H155.2z"/>
	<path class="st0" d="M214.2,175.1c-3.7,4.4-9.2,6.6-16.5,6.6c-6,0-10.5-1.7-13.7-5.2c-3.1-3.5-4.7-8.6-4.8-15.4v-36.5h9.6v36.3
		c0,8.5,3.5,12.8,10.4,12.8c7.3,0,12.2-2.7,14.6-8.2v-40.9h9.6v56.2h-9.1L214.2,175.1z"/>
	<path class="st0" d="M238.5,152.1c0-8.6,2-15.5,6.1-20.8c4.1-5.2,9.4-7.9,16-7.9c6.6,0,11.8,2.2,15.6,6.7v-29.3h9.6v79.7H277
		l-0.5-6c-3.8,4.7-9.2,7.1-16,7.1c-6.5,0-11.8-2.7-15.9-8c-4.1-5.3-6.2-12.3-6.2-20.9V152.1z M248.1,153.2c0,6.4,1.3,11.4,3.9,14.9
		c2.6,3.6,6.3,5.4,10.9,5.4c6.1,0,10.5-2.7,13.3-8.2v-25.8c-2.9-5.3-7.3-7.9-13.2-7.9c-4.7,0-8.4,1.8-11,5.5
		C249.4,140.7,248.1,146,248.1,153.2z"/>
	<path class="st0" d="M329.9,152c0-5.5,1.1-10.5,3.2-14.8c2.2-4.4,5.2-7.8,9-10.2c3.9-2.4,8.3-3.6,13.2-3.6c7.6,0,13.8,2.6,18.6,7.9
		c4.7,5.3,7.1,12.3,7.1,21.1v0.7c0,5.5-1,10.4-3.1,14.7c-2.1,4.3-5.1,7.7-9,10.1c-3.9,2.4-8.4,3.6-13.4,3.6
		c-7.6,0-13.8-2.6-18.5-7.9c-4.7-5.3-7.1-12.3-7.1-21V152z M339.5,153.2c0,6.2,1.4,11.2,4.3,15c2.9,3.8,6.8,5.7,11.6,5.7
		c4.9,0,8.8-1.9,11.6-5.7c2.9-3.8,4.3-9.2,4.3-16.1c0-6.2-1.5-11.2-4.4-15c-2.9-3.8-6.8-5.7-11.7-5.7c-4.7,0-8.6,1.9-11.5,5.7
		C341,140.7,339.5,146.1,339.5,153.2z"/>
</g>
<g>
	<path class="st0" d="M317.6,230.8l-10,0.2l-1.2-75.6l10-0.2L317.6,230.8z"/>
</g>
<g>
	<path class="st0" d="M386.1,219.4c0,8.5-2,15.4-5.9,20.7c-3.9,5.2-9.2,7.8-15.9,7.8c-6.8,0-12.2-2.2-16.1-6.5v27h-9.6v-77.8h8.8
		l0.5,6.2c3.9-4.8,9.3-7.3,16.3-7.3c6.7,0,12.1,2.5,16,7.6c3.9,5.1,5.9,12.2,5.9,21.2V219.4z M376.5,218.3c0-6.3-1.3-11.3-4-15
		c-2.7-3.7-6.4-5.5-11.1-5.5c-5.8,0-10.2,2.6-13.1,7.7v26.8c2.9,5.1,7.3,7.7,13.2,7.7c4.6,0,8.3-1.8,11-5.5
		C375.1,231,376.5,225.5,376.5,218.3z"/>
	<path class="st0" d="M424.3,247.9c-7.6,0-13.8-2.5-18.6-7.5c-4.8-5-7.2-11.7-7.2-20.1v-1.8c0-5.6,1.1-10.5,3.2-14.9
		c2.1-4.4,5.1-7.8,8.9-10.3c3.8-2.5,8-3.7,12.4-3.7c7.3,0,13,2.4,17,7.2c4,4.8,6.1,11.7,6.1,20.7v4h-38c0.1,5.5,1.8,10,4.9,13.4
		c3.1,3.4,7,5.1,11.8,5.1c3.4,0,6.3-0.7,8.6-2.1c2.4-1.4,4.4-3.2,6.2-5.5l5.9,4.6C440.7,244.3,433.7,247.9,424.3,247.9z
		 M423.1,197.6c-3.9,0-7.1,1.4-9.8,4.2c-2.6,2.8-4.3,6.8-4.9,11.9h28.1v-0.7c-0.3-4.9-1.6-8.7-3.9-11.3
		C430.3,198.9,427.1,197.6,423.1,197.6z"/>
	<path class="st0" d="M480.6,211.7l-9.2,9.6v25.5h-10v-75.6h10v37.4l33.6-37.4h12l-29.7,33.4l32.1,42.2h-11.9L480.6,211.7z"/>
</g>
<polygon class="st1" points="306.2,172.3 316.7,172.3 316.7,173.3 314.6,173.3 312.5,174.3 308.7,175.3 306.2,176.2 "/>
<polygon class="st2" points="307.3,217.6 317.9,217.6 307.3,221.1 "/>
<polygon class="st1" points="144.7,110.4 155.2,110.4 155.2,111.3 153.1,111.3 151,112.3 147.2,113.3 144.7,114.3 "/>
<polygon class="st1" points="178.8,124.5 189.3,124.5 189.3,125.5 187.1,125.5 185.1,126.5 181.3,127.4 178.8,128.4 "/>
<polygon class="st1" points="275.6,100.4 286.1,100.4 286.1,101.4 284,101.4 281.9,102.4 278.1,103.3 275.6,104.3 "/>
<polygon class="st1" points="461.2,170.3 471.7,170.3 471.7,171.3 469.5,171.3 467.4,172.3 463.7,173.3 461.2,174.3 "/>
<g>
</g>
<g>
</g>
<g>
</g>
<g>
</g>
<g>
</g>
<g>
</g>
</svg>
